<?xml version="1.0" encoding="UTF-8"?><svg xmlns="http://www.w3.org/2000/svg" xmlns:xlink="http://www.w3.org/1999/xlink" fill-opacity="1" color-rendering="auto" color-interpolation="auto" text-rendering="auto" stroke="black" stroke-linecap="square" width="1800" stroke-miterlimit="10" shape-rendering="auto" stroke-opacity="1" fill="black" stroke-dasharray="none" font-weight="normal" stroke-width="1" height="660" font-family="'Dialog'" font-style="normal" stroke-linejoin="miter" font-size="12px" stroke-dashoffset="0" image-rendering="auto">
  <!--Generated by ySVG 2.5-->
  <defs id="genericDefs"/>
  <g>
    <defs id="defs1">
      <clipPath clipPathUnits="userSpaceOnUse" id="clipPath1">
        <path d="M0 0 L1800 0 L1800 660 L0 660 L0 0 Z"/>
      </clipPath>
      <clipPath clipPathUnits="userSpaceOnUse" id="clipPath2">
        <path d="M-30 -20 L1770 -20 L1770 640 L-30 640 L-30 -20 Z"/>
      </clipPath>
      <clipPath clipPathUnits="userSpaceOnUse" id="clipPath3">
        <path d="M765 135 L765 185 L915 185 L915 135 Z"/>
      </clipPath>
      <clipPath clipPathUnits="userSpaceOnUse" id="clipPath4">
        <path d="M1605 335 L1605 385 L1755 385 L1755 335 Z"/>
      </clipPath>
      <clipPath clipPathUnits="userSpaceOnUse" id="clipPath5">
        <path d="M1425 335 L1425 385 L1575 385 L1575 335 Z"/>
      </clipPath>
      <clipPath clipPathUnits="userSpaceOnUse" id="clipPath6">
        <path d="M1245 335 L1245 385 L1395 385 L1395 335 Z"/>
      </clipPath>
      <clipPath clipPathUnits="userSpaceOnUse" id="clipPath7">
        <path d="M1065 335 L1065 385 L1215 385 L1215 335 Z"/>
      </clipPath>
      <clipPath clipPathUnits="userSpaceOnUse" id="clipPath8">
        <path d="M945 60 L945 258 L1095 258 L1095 60 Z"/>
      </clipPath>
      <clipPath clipPathUnits="userSpaceOnUse" id="clipPath9">
        <path d="M765 -5 L765 45 L915 45 L915 -5 Z"/>
      </clipPath>
      <clipPath clipPathUnits="userSpaceOnUse" id="clipPath10">
        <path d="M645 335 L645 385 L795 385 L795 335 Z"/>
      </clipPath>
      <clipPath clipPathUnits="userSpaceOnUse" id="clipPath11">
        <path d="M825 335 L825 385 L975 385 L975 335 Z"/>
      </clipPath>
      <clipPath clipPathUnits="userSpaceOnUse" id="clipPath12">
        <path d="M285 335 L285 385 L435 385 L435 335 Z"/>
      </clipPath>
      <clipPath clipPathUnits="userSpaceOnUse" id="clipPath13">
        <path d="M465 335 L465 385 L615 385 L615 335 Z"/>
      </clipPath>
      <clipPath clipPathUnits="userSpaceOnUse" id="clipPath14">
        <path d="M645 435 L645 485 L795 485 L795 435 Z"/>
      </clipPath>
      <clipPath clipPathUnits="userSpaceOnUse" id="clipPath15">
        <path d="M1305 575 L1305 625 L1455 625 L1455 575 Z"/>
      </clipPath>
      <clipPath clipPathUnits="userSpaceOnUse" id="clipPath16">
        <path d="M1125 575 L1125 625 L1275 625 L1275 575 Z"/>
      </clipPath>
      <clipPath clipPathUnits="userSpaceOnUse" id="clipPath17">
        <path d="M945 575 L945 625 L1095 625 L1095 575 Z"/>
      </clipPath>
      <clipPath clipPathUnits="userSpaceOnUse" id="clipPath18">
        <path d="M765 575 L765 625 L915 625 L915 575 Z"/>
      </clipPath>
      <clipPath clipPathUnits="userSpaceOnUse" id="clipPath19">
        <path d="M525 575 L525 625 L675 625 L675 575 Z"/>
      </clipPath>
      <clipPath clipPathUnits="userSpaceOnUse" id="clipPath20">
        <path d="M345 575 L345 625 L495 625 L495 575 Z"/>
      </clipPath>
      <clipPath clipPathUnits="userSpaceOnUse" id="clipPath21">
        <path d="M165 575 L165 625 L315 625 L315 575 Z"/>
      </clipPath>
      <clipPath clipPathUnits="userSpaceOnUse" id="clipPath22">
        <path d="M-15 575 L-15 625 L135 625 L135 575 Z"/>
      </clipPath>
    </defs>
    <g fill="white" text-rendering="geometricPrecision" shape-rendering="geometricPrecision" transform="translate(30,20)" stroke="white">
      <rect x="-30" width="1800" height="660" y="-20" clip-path="url(#clipPath2)" stroke="none"/>
    </g>
    <g text-rendering="geometricPrecision" stroke-miterlimit="1.45" stroke-width="2" shape-rendering="geometricPrecision" transform="matrix(1,0,0,1,30,20)" stroke-linecap="butt">
      <rect fill="none" x="765" width="150" height="50" y="135" clip-path="url(#clipPath2)"/>
      <text x="802.6377" y="150.8633" clip-path="url(#clipPath3)" font-family="'Arial'" stroke="none" stroke-width="1" xml:space="preserve">&lt;&lt;Interface&gt;&gt;</text>
    </g>
    <g font-size="13px" stroke-linecap="butt" transform="matrix(1,0,0,1,30,20)" text-rendering="geometricPrecision" font-family="'Arial'" shape-rendering="geometricPrecision" font-weight="bold" stroke-miterlimit="1.45">
      <text x="804.6055" xml:space="preserve" y="174.1748" clip-path="url(#clipPath3)" stroke="none">IEditorView</text>
    </g>
    <g text-rendering="geometricPrecision" stroke-miterlimit="1.45" stroke-width="2" shape-rendering="geometricPrecision" transform="matrix(1,0,0,1,30,20)" stroke-linecap="butt">
      <rect fill="none" x="1605" width="150" height="50" y="335" clip-path="url(#clipPath2)"/>
      <text x="1642.6377" y="350.8633" clip-path="url(#clipPath4)" font-family="'Arial'" stroke="none" stroke-width="1" xml:space="preserve">&lt;&lt;Interface&gt;&gt;</text>
    </g>
    <g font-size="13px" stroke-linecap="butt" transform="matrix(1,0,0,1,30,20)" text-rendering="geometricPrecision" font-family="'Arial'" shape-rendering="geometricPrecision" font-weight="bold" stroke-miterlimit="1.45">
      <text x="1635.5823" xml:space="preserve" y="374.1748" clip-path="url(#clipPath4)" stroke="none">IEditorActions</text>
    </g>
    <g text-rendering="geometricPrecision" stroke-miterlimit="1.45" stroke-width="2" shape-rendering="geometricPrecision" transform="matrix(1,0,0,1,30,20)" stroke-linecap="butt">
      <rect fill="none" x="1425" width="150" height="50" y="335" clip-path="url(#clipPath2)"/>
      <text x="1462.6377" y="350.8633" clip-path="url(#clipPath5)" font-family="'Arial'" stroke="none" stroke-width="1" xml:space="preserve">&lt;&lt;Interface&gt;&gt;</text>
    </g>
    <g font-size="13px" stroke-linecap="butt" transform="matrix(1,0,0,1,30,20)" text-rendering="geometricPrecision" font-family="'Arial'" shape-rendering="geometricPrecision" font-weight="bold" stroke-miterlimit="1.45">
      <text x="1458.8323" xml:space="preserve" y="374.1748" clip-path="url(#clipPath5)" stroke="none">IEditorMenus</text>
    </g>
    <g text-rendering="geometricPrecision" stroke-miterlimit="1.45" stroke-width="2" shape-rendering="geometricPrecision" transform="matrix(1,0,0,1,30,20)" stroke-linecap="butt">
      <rect fill="none" x="1245" width="150" height="50" y="335" clip-path="url(#clipPath2)"/>
      <text x="1282.6377" y="350.8633" clip-path="url(#clipPath6)" font-family="'Arial'" stroke="none" stroke-width="1" xml:space="preserve">&lt;&lt;Interface&gt;&gt;</text>
    </g>
    <g font-size="13px" stroke-linecap="butt" transform="matrix(1,0,0,1,30,20)" text-rendering="geometricPrecision" font-family="'Arial'" shape-rendering="geometricPrecision" font-weight="bold" stroke-miterlimit="1.45">
      <text x="1278.1023" xml:space="preserve" y="374.1748" clip-path="url(#clipPath6)" stroke="none">IEditorEvents</text>
    </g>
    <g text-rendering="geometricPrecision" stroke-miterlimit="1.45" stroke-width="2" shape-rendering="geometricPrecision" transform="matrix(1,0,0,1,30,20)" stroke-linecap="butt">
      <rect fill="none" x="1065" width="150" height="50" y="335" clip-path="url(#clipPath2)"/>
      <text x="1102.6377" y="350.8633" clip-path="url(#clipPath7)" font-family="'Arial'" stroke="none" stroke-width="1" xml:space="preserve">&lt;&lt;Interface&gt;&gt;</text>
    </g>
    <g font-size="13px" stroke-linecap="butt" transform="matrix(1,0,0,1,30,20)" text-rendering="geometricPrecision" font-family="'Arial'" shape-rendering="geometricPrecision" font-weight="bold" stroke-miterlimit="1.45">
      <text x="1084.0232" xml:space="preserve" y="374.1748" clip-path="url(#clipPath7)" stroke="none">IEditorCommands</text>
    </g>
    <g text-rendering="geometricPrecision" stroke-miterlimit="1.45" stroke-width="2" shape-rendering="geometricPrecision" transform="matrix(1,0,0,1,30,20)" stroke-linecap="butt">
      <rect fill="none" x="945" width="150" height="198.9147" y="60.5427" clip-path="url(#clipPath2)"/>
      <text x="982.6377" y="76.4059" clip-path="url(#clipPath8)" font-family="'Arial'" stroke="none" stroke-width="1" xml:space="preserve">&lt;&lt;Interface&gt;&gt;</text>
    </g>
    <g font-size="13px" stroke-linecap="butt" transform="matrix(1,0,0,1,30,20)" text-rendering="geometricPrecision" font-family="'Arial'" shape-rendering="geometricPrecision" font-weight="bold" stroke-miterlimit="1.45">
      <text x="972.6877" xml:space="preserve" y="99.7175" clip-path="url(#clipPath8)" stroke="none">IEditorManager</text>
    </g>
    <g text-rendering="geometricPrecision" shape-rendering="geometricPrecision" transform="matrix(1,0,0,1,30,20)">
      <line y2="107" fill="none" x1="946" clip-path="url(#clipPath8)" x2="1094" y1="107"/>
      <text stroke-linecap="butt" x="950" y="123.3356" clip-path="url(#clipPath8)" font-family="'Arial'" stroke="none" stroke-miterlimit="1.45" xml:space="preserve">ActiveView</text>
      <text stroke-linecap="butt" x="950" y="136.7419" clip-path="url(#clipPath8)" font-family="'Arial'" stroke="none" stroke-miterlimit="1.45" xml:space="preserve">Events</text>
      <text stroke-linecap="butt" x="950" y="150.1481" clip-path="url(#clipPath8)" font-family="'Arial'" stroke="none" stroke-miterlimit="1.45" xml:space="preserve">Views</text>
      <text stroke-linecap="butt" x="950" y="163.5544" clip-path="url(#clipPath8)" font-family="'Arial'" stroke="none" stroke-miterlimit="1.45" xml:space="preserve">ToolViews</text>
      <text stroke-linecap="butt" x="950" y="176.9606" clip-path="url(#clipPath8)" font-family="'Arial'" stroke="none" stroke-miterlimit="1.45" xml:space="preserve">Menus</text>
      <text stroke-linecap="butt" x="950" y="190.3669" clip-path="url(#clipPath8)" font-family="'Arial'" stroke="none" stroke-miterlimit="1.45" xml:space="preserve">Actions</text>
      <text stroke-linecap="butt" x="950" y="203.7731" clip-path="url(#clipPath8)" font-family="'Arial'" stroke="none" stroke-miterlimit="1.45" xml:space="preserve">Commands</text>
      <text stroke-linecap="butt" x="950" y="217.1794" clip-path="url(#clipPath8)" font-family="'Arial'" stroke="none" stroke-miterlimit="1.45" xml:space="preserve">Selection</text>
      <text stroke-linecap="butt" x="950" y="230.5856" clip-path="url(#clipPath8)" font-family="'Arial'" stroke="none" stroke-miterlimit="1.45" xml:space="preserve">Settings</text>
      <text stroke-linecap="butt" x="950" y="243.9919" clip-path="url(#clipPath8)" font-family="'Arial'" stroke="none" stroke-miterlimit="1.45" xml:space="preserve">SearchEngine</text>
      <line y2="251" fill="none" x1="946" clip-path="url(#clipPath8)" x2="1094" y1="251"/>
      <rect stroke-linecap="butt" x="765" y="-5" clip-path="url(#clipPath2)" fill="none" width="150" height="50" stroke-width="2" stroke-miterlimit="1.45"/>
      <text stroke-linecap="butt" x="802.6377" y="10.8633" clip-path="url(#clipPath9)" font-family="'Arial'" stroke="none" stroke-miterlimit="1.45" xml:space="preserve">&lt;&lt;Interface&gt;&gt;</text>
    </g>
    <g font-size="13px" stroke-linecap="butt" transform="matrix(1,0,0,1,30,20)" text-rendering="geometricPrecision" font-family="'Arial'" shape-rendering="geometricPrecision" font-weight="bold" stroke-miterlimit="1.45">
      <text x="800.9905" xml:space="preserve" y="34.1748" clip-path="url(#clipPath9)" stroke="none">IEditorViews</text>
    </g>
    <g text-rendering="geometricPrecision" stroke-miterlimit="1.45" stroke-width="2" shape-rendering="geometricPrecision" transform="matrix(1,0,0,1,30,20)" stroke-linecap="butt">
      <rect fill="none" x="645" width="150" height="50" y="335" clip-path="url(#clipPath2)"/>
      <text x="682.6377" y="350.8633" clip-path="url(#clipPath10)" font-family="'Arial'" stroke="none" stroke-width="1" xml:space="preserve">&lt;&lt;Interface&gt;&gt;</text>
    </g>
    <g font-size="13px" stroke-linecap="butt" transform="matrix(1,0,0,1,30,20)" text-rendering="geometricPrecision" font-family="'Arial'" shape-rendering="geometricPrecision" font-weight="bold" stroke-miterlimit="1.45">
      <text x="667.2732" xml:space="preserve" y="374.1748" clip-path="url(#clipPath10)" stroke="none">IEditorToolViews</text>
    </g>
    <g text-rendering="geometricPrecision" stroke-miterlimit="1.45" stroke-width="2" shape-rendering="geometricPrecision" transform="matrix(1,0,0,1,30,20)" stroke-linecap="butt">
      <rect fill="none" x="825" width="150" height="50" y="335" clip-path="url(#clipPath2)"/>
      <text x="862.6377" y="350.8633" clip-path="url(#clipPath11)" font-family="'Arial'" stroke="none" stroke-width="1" xml:space="preserve">&lt;&lt;Interface&gt;&gt;</text>
    </g>
    <g font-size="13px" stroke-linecap="butt" transform="matrix(1,0,0,1,30,20)" text-rendering="geometricPrecision" font-family="'Arial'" shape-rendering="geometricPrecision" font-weight="bold" stroke-miterlimit="1.45">
      <text x="850.52" xml:space="preserve" y="374.1748" clip-path="url(#clipPath11)" stroke="none">IEditorSelection</text>
    </g>
    <g text-rendering="geometricPrecision" stroke-miterlimit="1.45" stroke-width="2" shape-rendering="geometricPrecision" transform="matrix(1,0,0,1,30,20)" stroke-linecap="butt">
      <rect fill="none" x="285" width="150" height="50" y="335" clip-path="url(#clipPath2)"/>
      <text x="322.6377" y="350.8633" clip-path="url(#clipPath12)" font-family="'Arial'" stroke="none" stroke-width="1" xml:space="preserve">&lt;&lt;Interface&gt;&gt;</text>
    </g>
    <g font-size="13px" stroke-linecap="butt" transform="matrix(1,0,0,1,30,20)" text-rendering="geometricPrecision" font-family="'Arial'" shape-rendering="geometricPrecision" font-weight="bold" stroke-miterlimit="1.45">
      <text x="313.7764" xml:space="preserve" y="374.1748" clip-path="url(#clipPath12)" stroke="none">IEditorSettings</text>
    </g>
    <g text-rendering="geometricPrecision" stroke-miterlimit="1.45" stroke-width="2" shape-rendering="geometricPrecision" transform="matrix(1,0,0,1,30,20)" stroke-linecap="butt">
      <rect fill="none" x="465" width="150" height="50" y="335" clip-path="url(#clipPath2)"/>
      <text x="502.6377" y="350.8633" clip-path="url(#clipPath13)" font-family="'Arial'" stroke="none" stroke-width="1" xml:space="preserve">&lt;&lt;Interface&gt;&gt;</text>
    </g>
    <g font-size="13px" stroke-linecap="butt" transform="matrix(1,0,0,1,30,20)" text-rendering="geometricPrecision" font-family="'Arial'" shape-rendering="geometricPrecision" font-weight="bold" stroke-miterlimit="1.45">
      <text x="476.0696" xml:space="preserve" y="374.1748" clip-path="url(#clipPath13)" stroke="none">IEditorSearchEngine</text>
    </g>
    <g text-rendering="geometricPrecision" stroke-miterlimit="1.45" stroke-width="2" shape-rendering="geometricPrecision" transform="matrix(1,0,0,1,30,20)" stroke-linecap="butt">
      <rect fill="none" x="645" width="150" height="50" y="435" clip-path="url(#clipPath2)"/>
      <text x="682.6377" y="450.8633" clip-path="url(#clipPath14)" font-family="'Arial'" stroke="none" stroke-width="1" xml:space="preserve">&lt;&lt;Interface&gt;&gt;</text>
    </g>
    <g font-size="13px" stroke-linecap="butt" transform="matrix(1,0,0,1,30,20)" text-rendering="geometricPrecision" font-family="'Arial'" shape-rendering="geometricPrecision" font-weight="bold" stroke-miterlimit="1.45">
      <text x="670.8882" xml:space="preserve" y="474.1748" clip-path="url(#clipPath14)" stroke="none">IEditorToolView</text>
    </g>
    <g text-rendering="geometricPrecision" stroke-miterlimit="1.45" stroke-width="2" shape-rendering="geometricPrecision" transform="matrix(1,0,0,1,30,20)" stroke-linecap="butt">
      <rect fill="none" x="1305" width="150" height="50" y="575" clip-path="url(#clipPath2)"/>
      <text x="1352.7393" y="591.1328" clip-path="url(#clipPath15)" font-family="'Roboto'" stroke="none" stroke-width="1" xml:space="preserve">&lt;&lt;Class&gt;&gt;</text>
    </g>
    <g font-size="13px" stroke-linecap="butt" transform="matrix(1,0,0,1,30,20)" text-rendering="geometricPrecision" font-family="'Roboto'" shape-rendering="geometricPrecision" font-weight="bold" stroke-miterlimit="1.45">
      <text x="1322.2522" xml:space="preserve" y="615.123" clip-path="url(#clipPath15)" stroke="none">TfrmActionListView</text>
    </g>
    <g text-rendering="geometricPrecision" stroke-miterlimit="1.45" stroke-width="2" shape-rendering="geometricPrecision" transform="matrix(1,0,0,1,30,20)" stroke-linecap="butt">
      <rect fill="none" x="1125" width="150" height="50" y="575" clip-path="url(#clipPath2)"/>
      <text x="1172.7393" y="591.1328" clip-path="url(#clipPath16)" font-family="'Roboto'" stroke="none" stroke-width="1" xml:space="preserve">&lt;&lt;Class&gt;&gt;</text>
    </g>
    <g font-size="13px" stroke-linecap="butt" transform="matrix(1,0,0,1,30,20)" text-rendering="geometricPrecision" font-family="'Roboto'" shape-rendering="geometricPrecision" font-weight="bold" stroke-miterlimit="1.45">
      <text x="1155.3792" xml:space="preserve" y="615.123" clip-path="url(#clipPath16)" stroke="none">TfrmAlignLines</text>
    </g>
    <g text-rendering="geometricPrecision" stroke-miterlimit="1.45" stroke-width="2" shape-rendering="geometricPrecision" transform="matrix(1,0,0,1,30,20)" stroke-linecap="butt">
      <rect fill="none" x="945" width="150" height="50" y="575" clip-path="url(#clipPath2)"/>
      <text x="992.7393" y="591.1328" clip-path="url(#clipPath17)" font-family="'Roboto'" stroke="none" stroke-width="1" xml:space="preserve">&lt;&lt;Class&gt;&gt;</text>
    </g>
    <g font-size="13px" stroke-linecap="butt" transform="matrix(1,0,0,1,30,20)" text-rendering="geometricPrecision" font-family="'Roboto'" shape-rendering="geometricPrecision" font-weight="bold" stroke-miterlimit="1.45">
      <text x="964.8992" xml:space="preserve" y="615.123" clip-path="url(#clipPath17)" stroke="none">TfrmCharacterMap</text>
    </g>
    <g text-rendering="geometricPrecision" stroke-miterlimit="1.45" stroke-width="2" shape-rendering="geometricPrecision" transform="matrix(1,0,0,1,30,20)" stroke-linecap="butt">
      <rect fill="none" x="765" width="150" height="50" y="575" clip-path="url(#clipPath2)"/>
      <text x="812.7393" y="591.1328" clip-path="url(#clipPath18)" font-family="'Roboto'" stroke="none" stroke-width="1" xml:space="preserve">&lt;&lt;Class&gt;&gt;</text>
    </g>
    <g font-size="13px" stroke-linecap="butt" transform="matrix(1,0,0,1,30,20)" text-rendering="geometricPrecision" font-family="'Roboto'" shape-rendering="geometricPrecision" font-weight="bold" stroke-miterlimit="1.45">
      <text x="777.5803" xml:space="preserve" y="615.123" clip-path="url(#clipPath18)" stroke="none">TfrmCodeFilterDialog</text>
    </g>
    <g text-rendering="geometricPrecision" stroke-miterlimit="1.45" stroke-width="2" shape-rendering="geometricPrecision" transform="matrix(1,0,0,1,30,20)" stroke-linecap="butt">
      <rect fill="none" x="525" width="150" height="50" y="575" clip-path="url(#clipPath2)"/>
      <text x="572.7393" y="591.1328" clip-path="url(#clipPath19)" font-family="'Roboto'" stroke="none" stroke-width="1" xml:space="preserve">&lt;&lt;Class&gt;&gt;</text>
    </g>
    <g font-size="13px" stroke-linecap="butt" transform="matrix(1,0,0,1,30,20)" text-rendering="geometricPrecision" font-family="'Roboto'" shape-rendering="geometricPrecision" font-weight="bold" stroke-miterlimit="1.45">
      <text x="550.6851" xml:space="preserve" y="615.123" clip-path="url(#clipPath19)" stroke="none">TfrmCodeShaper</text>
    </g>
    <g text-rendering="geometricPrecision" stroke-miterlimit="1.45" stroke-width="2" shape-rendering="geometricPrecision" transform="matrix(1,0,0,1,30,20)" stroke-linecap="butt">
      <rect fill="none" x="345" width="150" height="50" y="575" clip-path="url(#clipPath2)"/>
      <text x="392.7393" y="591.1328" clip-path="url(#clipPath20)" font-family="'Roboto'" stroke="none" stroke-width="1" xml:space="preserve">&lt;&lt;Class&gt;&gt;</text>
    </g>
    <g font-size="13px" stroke-linecap="butt" transform="matrix(1,0,0,1,30,20)" text-rendering="geometricPrecision" font-family="'Roboto'" shape-rendering="geometricPrecision" font-weight="bold" stroke-miterlimit="1.45">
      <text x="377.5469" xml:space="preserve" y="615.123" clip-path="url(#clipPath20)" stroke="none">TfrmHexEditor</text>
    </g>
    <g text-rendering="geometricPrecision" stroke-miterlimit="1.45" stroke-width="2" shape-rendering="geometricPrecision" transform="matrix(1,0,0,1,30,20)" stroke-linecap="butt">
      <rect fill="none" x="165" width="150" height="50" y="575" clip-path="url(#clipPath2)"/>
      <text x="212.7393" y="591.1328" clip-path="url(#clipPath21)" font-family="'Roboto'" stroke="none" stroke-width="1" xml:space="preserve">&lt;&lt;Class&gt;&gt;</text>
    </g>
    <g font-size="13px" stroke-linecap="butt" transform="matrix(1,0,0,1,30,20)" text-rendering="geometricPrecision" font-family="'Roboto'" shape-rendering="geometricPrecision" font-weight="bold" stroke-miterlimit="1.45">
      <text x="200.4795" xml:space="preserve" y="615.123" clip-path="url(#clipPath21)" stroke="none">TfrmMiniMap</text>
    </g>
    <g text-rendering="geometricPrecision" stroke-miterlimit="1.45" stroke-width="2" shape-rendering="geometricPrecision" transform="matrix(1,0,0,1,30,20)" stroke-linecap="butt">
      <rect fill="none" x="-15" width="150" height="50" y="575" clip-path="url(#clipPath2)"/>
      <text x="32.7393" y="591.1328" clip-path="url(#clipPath22)" font-family="'Roboto'" stroke="none" stroke-width="1" xml:space="preserve">&lt;&lt;Class&gt;&gt;</text>
    </g>
    <g font-size="13px" stroke-linecap="butt" transform="matrix(1,0,0,1,30,20)" text-rendering="geometricPrecision" font-family="'Roboto'" shape-rendering="geometricPrecision" font-weight="bold" stroke-miterlimit="1.45">
      <text x="23.0249" xml:space="preserve" y="615.123" clip-path="url(#clipPath22)" stroke="none">TfrmPreview</text>
      <path fill="none" d="M1020 266.4969 L1020 300 L1320 300 L1320 334.9658" clip-path="url(#clipPath2)"/>
    </g>
    <g stroke-linecap="butt" transform="matrix(1,0,0,1,30,20)" fill="white" text-rendering="geometricPrecision" shape-rendering="geometricPrecision" stroke="white" stroke-miterlimit="1.45">
      <path d="M1020 259.4969 L1025 266.4969 L1020 273.4969 L1015 266.4969 Z" stroke="none" clip-path="url(#clipPath2)"/>
      <path fill="none" d="M1020 259.4969 L1025 266.4969 L1020 273.4969 L1015 266.4969 Z" clip-path="url(#clipPath2)" stroke="black"/>
      <path fill="none" d="M1020 266.4969 L1020 300 L1500 300 L1500 334.9658" clip-path="url(#clipPath2)" stroke="black"/>
      <path d="M1020 259.4969 L1025 266.4969 L1020 273.4969 L1015 266.4969 Z" clip-path="url(#clipPath2)" stroke="none"/>
      <path fill="none" d="M1020 259.4969 L1025 266.4969 L1020 273.4969 L1015 266.4969 Z" clip-path="url(#clipPath2)" stroke="black"/>
      <path fill="none" d="M1020 266.4969 L1020 300 L1140 300 L1140 334.9658" clip-path="url(#clipPath2)" stroke="black"/>
      <path d="M1020 259.4969 L1025 266.4969 L1020 273.4969 L1015 266.4969 Z" clip-path="url(#clipPath2)" stroke="none"/>
      <path fill="none" d="M1020 259.4969 L1025 266.4969 L1020 273.4969 L1015 266.4969 Z" clip-path="url(#clipPath2)" stroke="black"/>
      <path fill="none" d="M1020 266.4969 L1020 300 L1680 300 L1680 334.9658" clip-path="url(#clipPath2)" stroke="black"/>
      <path d="M1020 259.4969 L1025 266.4969 L1020 273.4969 L1015 266.4969 Z" clip-path="url(#clipPath2)" stroke="none"/>
      <path fill="none" d="M1020 259.4969 L1025 266.4969 L1020 273.4969 L1015 266.4969 Z" clip-path="url(#clipPath2)" stroke="black"/>
      <path fill="none" d="M937.9707 160 L915.0293 160" clip-path="url(#clipPath2)" stroke="black"/>
      <path d="M944.9707 160 L937.9707 165 L930.9707 160 L937.9707 155 Z" clip-path="url(#clipPath2)" stroke="none"/>
      <path fill="none" d="M944.9707 160 L937.9707 165 L930.9707 160 L937.9707 155 Z" clip-path="url(#clipPath2)" stroke="black"/>
      <path fill="none" d="M1020 53.5031 L1020 20 L915.0256 20" clip-path="url(#clipPath2)" stroke="black"/>
      <path d="M1020 60.5031 L1015 53.5031 L1020 46.5031 L1025 53.5031 Z" clip-path="url(#clipPath2)" stroke="none"/>
      <path fill="none" d="M1020 60.5031 L1015 53.5031 L1020 46.5031 L1025 53.5031 Z" clip-path="url(#clipPath2)" stroke="black"/>
      <path fill="none" d="M840 52.0439 L840 134.9561" clip-path="url(#clipPath2)" stroke="black"/>
      <path d="M840 45.0439 L845 52.0439 L840 59.0439 L835 52.0439 Z" clip-path="url(#clipPath2)" stroke="none"/>
      <path fill="none" d="M840 45.0439 L845 52.0439 L840 59.0439 L835 52.0439 Z" clip-path="url(#clipPath2)" stroke="black"/>
      <path fill="none" d="M1020 266.4969 L1020 300 L720 300 L720 334.9658" clip-path="url(#clipPath2)" stroke="black"/>
      <path d="M1020 259.4969 L1025 266.4969 L1020 273.4969 L1015 266.4969 Z" clip-path="url(#clipPath2)" stroke="none"/>
      <path fill="none" d="M1020 259.4969 L1025 266.4969 L1020 273.4969 L1015 266.4969 Z" clip-path="url(#clipPath2)" stroke="black"/>
      <path fill="none" d="M1020 266.4969 L1020 300 L900 300 L900 334.9658" clip-path="url(#clipPath2)" stroke="black"/>
      <path d="M1020 259.4969 L1025 266.4969 L1020 273.4969 L1015 266.4969 Z" clip-path="url(#clipPath2)" stroke="none"/>
      <path fill="none" d="M1020 259.4969 L1025 266.4969 L1020 273.4969 L1015 266.4969 Z" clip-path="url(#clipPath2)" stroke="black"/>
      <path fill="none" d="M1020 266.4969 L1020 300 L360 300 L360 334.9658" clip-path="url(#clipPath2)" stroke="black"/>
      <path d="M1020 259.4969 L1025 266.4969 L1020 273.4969 L1015 266.4969 Z" clip-path="url(#clipPath2)" stroke="none"/>
      <path fill="none" d="M1020 259.4969 L1025 266.4969 L1020 273.4969 L1015 266.4969 Z" clip-path="url(#clipPath2)" stroke="black"/>
      <path fill="none" d="M1020 266.4969 L1020 300 L540 300 L540 334.9658" clip-path="url(#clipPath2)" stroke="black"/>
      <path d="M1020 259.4969 L1025 266.4969 L1020 273.4969 L1015 266.4969 Z" clip-path="url(#clipPath2)" stroke="none"/>
      <path fill="none" d="M1020 259.4969 L1025 266.4969 L1020 273.4969 L1015 266.4969 Z" clip-path="url(#clipPath2)" stroke="black"/>
      <path fill="none" d="M720 392.0488 L720 434.9512" clip-path="url(#clipPath2)" stroke="black"/>
      <path d="M720 385.0488 L725 392.0488 L720 399.0488 L715 392.0488 Z" clip-path="url(#clipPath2)" stroke="none"/>
      <path fill="none" d="M720 385.0488 L725 392.0488 L720 399.0488 L715 392.0488 Z" clip-path="url(#clipPath2)" stroke="black"/>
      <path fill="none" stroke-dasharray="6,2" d="M1380 574.9658 L1380 540 L720 540 L720 500.0269" clip-path="url(#clipPath2)" stroke="black"/>
      <path stroke-dasharray="6,2" d="M720 485.0269 L714 501.0269 L726 501.0269 Z" clip-path="url(#clipPath2)" stroke="none"/>
      <path fill="none" d="M720 485.0269 L714 501.0269 L726 501.0269 Z" clip-path="url(#clipPath2)" stroke="black"/>
      <path fill="none" stroke-dasharray="6,2" d="M1200 574.9658 L1200 540 L720 540 L720 500.0269" clip-path="url(#clipPath2)" stroke="black"/>
      <path stroke-dasharray="6,2" d="M720 485.0269 L714 501.0269 L726 501.0269 Z" clip-path="url(#clipPath2)" stroke="none"/>
      <path fill="none" d="M720 485.0269 L714 501.0269 L726 501.0269 Z" clip-path="url(#clipPath2)" stroke="black"/>
      <path fill="none" stroke-dasharray="6,2" d="M1020 574.9658 L1020 540 L720 540 L720 500.0269" clip-path="url(#clipPath2)" stroke="black"/>
      <path stroke-dasharray="6,2" d="M720 485.0269 L714 501.0269 L726 501.0269 Z" clip-path="url(#clipPath2)" stroke="none"/>
      <path fill="none" d="M720 485.0269 L714 501.0269 L726 501.0269 Z" clip-path="url(#clipPath2)" stroke="black"/>
      <path fill="none" stroke-dasharray="6,2" d="M840 574.9658 L840 540 L720 540 L720 500.0269" clip-path="url(#clipPath2)" stroke="black"/>
      <path stroke-dasharray="6,2" d="M720 485.0269 L714 501.0269 L726 501.0269 Z" clip-path="url(#clipPath2)" stroke="none"/>
      <path fill="none" d="M720 485.0269 L714 501.0269 L726 501.0269 Z" clip-path="url(#clipPath2)" stroke="black"/>
      <path fill="none" stroke-dasharray="6,2" d="M600 574.9658 L600 540 L720 540 L720 500.0269" clip-path="url(#clipPath2)" stroke="black"/>
      <path stroke-dasharray="6,2" d="M720 485.0269 L714 501.0269 L726 501.0269 Z" clip-path="url(#clipPath2)" stroke="none"/>
      <path fill="none" d="M720 485.0269 L714 501.0269 L726 501.0269 Z" clip-path="url(#clipPath2)" stroke="black"/>
      <path fill="none" stroke-dasharray="6,2" d="M420 574.9658 L420 540 L720 540 L720 500.0269" clip-path="url(#clipPath2)" stroke="black"/>
      <path stroke-dasharray="6,2" d="M720 485.0269 L714 501.0269 L726 501.0269 Z" clip-path="url(#clipPath2)" stroke="none"/>
      <path fill="none" d="M720 485.0269 L714 501.0269 L726 501.0269 Z" clip-path="url(#clipPath2)" stroke="black"/>
      <path fill="none" stroke-dasharray="6,2" d="M240 574.9658 L240 540 L720 540 L720 500.0269" clip-path="url(#clipPath2)" stroke="black"/>
      <path stroke-dasharray="6,2" d="M720 485.0269 L714 501.0269 L726 501.0269 Z" clip-path="url(#clipPath2)" stroke="none"/>
      <path fill="none" d="M720 485.0269 L714 501.0269 L726 501.0269 Z" clip-path="url(#clipPath2)" stroke="black"/>
      <path fill="none" stroke-dasharray="6,2" d="M60 574.9658 L60 540 L720 540 L720 500.0269" clip-path="url(#clipPath2)" stroke="black"/>
      <path stroke-dasharray="6,2" d="M720 485.0269 L714 501.0269 L726 501.0269 Z" clip-path="url(#clipPath2)" stroke="none"/>
      <path fill="none" d="M720 485.0269 L714 501.0269 L726 501.0269 Z" clip-path="url(#clipPath2)" stroke="black"/>
    </g>
  </g>
</svg>
